

Cover:
 
http://imageshack.us/a/img14/6629/10799960.jpg 
http://imageshack.us/a/img51/192/22803570.jpg

Release info:

General
Format                                   : Matroska
Format version                           : Version 2
File size                                : 696 MiB
Duration                                 : 1h 45mn
Overall bit rate                         : 920 Kbps
Movie name                               : Sthaniyo Sangbad 2010

Video
ID                                       : 1
Format                                   : MPEG-4 Visual
Format profile                           : Advanced Simple@L5
Format settings, BVOP                    : Yes
Format settings, QPel                    : No
Format settings, GMC                     : No warppoints
Format settings, Matrix                  : Default (H.263)
Codec ID                                 : V_MS/VFW/FOURCC / XVID
Codec ID/Hint                            : XviD
Duration                                 : 1h 45mn
Bit rate                                 : 806 Kbps
Width                                    : 640 pixels
Height                                   : 272 pixels
Display aspect ratio                     : 2.35:1
Frame rate mode                          : Constant
Frame rate                               : 25.000 fps
Color space                              : YUV
Chroma subsampling                       : 4:2:0
Bit depth                                : 8 bits
Scan type                                : Progressive
Compression mode                         : Lossy
Bits/(Pixel*Frame)                       : 0.185
Stream size                              : 610 MiB (88%)
Title                                    : Sthaniyo Sangbad 2010
Writing library                          : XviD 1.2.1 (UTC 2008-12-04)
Language                                 : Bengali
Default                                  : Yes
Forced                                   : No

Audio
ID                                       : 2
Format                                   : MPEG Audio
Format version                           : Version 1
Format profile                           : Layer 3
Mode                                     : Joint stereo
Mode extension                           : MS Stereo
Muxing mode                              : Header stripping
Codec ID                                 : A_MPEG/L3
Codec ID/Hint                            : MP3
Duration                                 : 1h 45mn
Bit rate mode                            : Constant
Bit rate                                 : 96.0 Kbps
Channel(s)                               : 2 channels
Sampling rate                            : 32.0 KHz
Compression mode                         : Lossy
Stream size                              : 72.6 MiB (10%)
Title                                    : Sthaniyo Sangbad 2010
Writing library                          : LAME3.99r
Encoding settings                        : -m j -V 4 -q 2 -lowpass 15.1 -b 96
Language                                 : Bengali
Default                                  : Yes
Forced                                   : No

Source:
credit to original movie ripper Deshi Digital Dhoom (Thanks)

Movie Info:

Director:
Arjun Gourisaria, Moinak Biswas
Producer:
Anand K Khetan, Arjun Gourisaria
Music:
Arindrajit Saha
Main Cast:
Anirban Dutta, Suman Mukherjee, Nayana Palit, Anindya Bandyopadhyay...  more
Genre:
Drama
Release:
Nov 26, 2010

Sthaniyo Sangbad synopsis :

Deshbandhu colony comprising of a settlement of refugees is situated on the southern fringes of Calcutta. Atin, the dreamy poet and Ananya's secret admirer, of the locality is worried in not finding her anywhere the next day. She is very important to him and he confesses this to Deepankarda, his friend, philosopher and guide in the locality. His home is facing demolition. The two people who stole AnanyaΓÇÖs plaid want to sell it to raise money for a computer course. They are desperate to pursue higher education - by any means. Five guys of the locality spend ... 


Screen Shot:
 
http://imageshack.us/a/img197/7402/18602737.png 
http://imageshack.us/a/img442/4497/23546700.png 
http://imageshack.us/a/img404/8003/38274414.png 
http://imageshack.us/a/img820/6814/68858848.png 
http://imageshack.us/a/img703/1512/75650735.png 
http://imageshack.us/a/img16/6798/48032598.png
